<?xml version="1.0" encoding="iso-8859-1"?>
<!-- Uploaded to: SVG Repo, www.svgrepo.com, Generator: SVG Repo Mixer Tools -->
<!DOCTYPE svg PUBLIC "-//W3C//DTD SVG 1.1//EN" "http://www.w3.org/Graphics/SVG/1.1/DTD/svg11.dtd">
<svg fill="#000000" version="1.1" id="Capa_1" xmlns="http://www.w3.org/2000/svg" xmlns:xlink="http://www.w3.org/1999/xlink" 
	 width="800px" height="800px" viewBox="0 0 588.154 588.154"
	 xml:space="preserve">
<g>
	<g>
		<g>
			<path d="M312.475,588.154c-7.045,0-14.066-1.871-20.303-5.616c-11.928-7.13-19.219-20.013-19.219-33.907V367.858L122.465,467.978
				c-18.121,12.09-42.707,7.18-54.786-11.01c-12.099-18.168-7.16-42.708,11.018-54.797l162.759-108.312L78.659,185.954
				c-18.158-12.089-23.097-36.626-11-54.796c12.081-18.199,36.628-23.1,54.807-11.009l150.488,100.138V39.527
				c0-13.895,7.291-26.767,19.219-33.906c11.907-7.139,26.668-7.508,38.963-0.937l154.541,82.771
				c24.196,12.968,40.044,38.046,41.354,65.458c1.312,27.422-12.063,53.9-34.91,69.106L383.84,294.07L492.102,366.1
				c22.85,15.228,36.244,41.704,34.931,69.107c-1.313,27.413-17.158,52.489-41.354,65.449l-154.541,82.808
				C325.308,586.602,318.88,588.154,312.475,588.154z M351.997,367.124v115.488l96.354-51.622L351.997,367.124z M351.997,105.191
				v115.124l96.337-64.089L351.997,105.191z"/>
		</g>
	</g>
</g>
</svg>